<svg xmlns="http://www.w3.org/2000/svg" xmlns:xlink="http://www.w3.org/1999/xlink" width="500" zoomAndPan="magnify" viewBox="0 0 375 374.999991" height="500" preserveAspectRatio="xMidYMid meet" version="1.0"><defs><g/></defs><g fill="#ff914d" fill-opacity="1"><g transform="translate(451.606082, 325.595008)"><g><path d="M -236.964844 -307.191406 C -236.964844 -307.191406 -353.542969 -155.324219 -418.582031 -49.121094 L -305.460938 -15.914062 L -231.429688 -191.648438 C -220.359375 -167.085938 -166.742188 -35.976562 -166.742188 -35.976562 L -157.054688 -22.484375 L -98.589844 -21.792969 L -85.792969 -39.4375 C -86.828125 -35.632812 -236.964844 -307.191406 -236.964844 -307.191406 Z M -236.964844 -307.191406 "/></g></g></g><path stroke-linecap="butt" transform="matrix(0.00000000000000009, -1.476294, 1.476294, 0.00000000000000009, -166.073656, 348.3782)" fill="none" stroke-linejoin="miter" d="M 208.098253 247.486473 C 208.098253 247.486473 105.227674 168.519716 33.288651 124.464077 L 10.795138 201.089138 L 129.832682 251.235833 C 113.194733 258.734553 24.384914 295.05598 24.384914 295.05598 L 15.245684 301.615375 L 14.777344 341.217823 L 26.729256 349.886068 C 24.152067 349.184882 208.098253 247.486473 208.098253 247.486473 Z M 208.098253 247.486473 " stroke="#ffbd59" stroke-width="9.59812" stroke-opacity="1" stroke-miterlimit="4"/></svg>