<svg xmlns="http://www.w3.org/2000/svg" xmlns:xlink="http://www.w3.org/1999/xlink" width="1000" zoomAndPan="magnify" viewBox="0 0 750 374.999991" height="500" preserveAspectRatio="xMidYMid meet" version="1.0"><defs><g/></defs><g fill="#ffbd59" fill-opacity="1"><g transform="translate(224.415965, 324.247234)"><g><path d="M 222.421875 -136.777344 L 182.671875 -157.195312 C 186.828125 -161.351562 202.730469 -173.277344 206.886719 -177.433594 C 221.699219 -211.402344 204.714844 -267.957031 204.714844 -267.957031 L 183.214844 -271.207031 C 158.101562 -271.570312 86.546875 -282.230469 35.957031 -268.679688 L 33.425781 -265.789062 C 32.882812 -265.246094 35.957031 -84.019531 36.316406 -10.480469 L 132.804688 -4.515625 L 206.160156 -6.324219 L 212.667969 -9.757812 C 240.492188 -81.308594 222.421875 -136.777344 222.421875 -136.777344 Z M 77.152344 -175.808594 C 73.359375 -189.898438 76.25 -223.328125 76.25 -223.328125 C 76.25 -223.328125 114.011719 -225.855469 119.976562 -225.855469 C 132.804688 -212.125 129.914062 -190.082031 119.976562 -173.277344 Z M 85.285156 -72.996094 C 80.40625 -91.066406 84.199219 -134.792969 84.199219 -134.792969 C 84.199219 -134.792969 133.347656 -138.042969 140.933594 -138.042969 C 157.738281 -119.976562 153.761719 -91.425781 140.933594 -69.746094 Z M 85.285156 -72.996094 "/></g></g></g><path stroke-linecap="butt" transform="matrix(1.479642, 0, 0, 1.479642, 192.067511, 2.544697)" fill="none" stroke-linejoin="miter" d="M 164.151595 119.558993 L 137.284351 105.759731 C 140.093307 102.950775 150.840733 94.893506 153.649689 92.084549 C 163.663196 69.12714 152.184491 30.905271 152.184491 30.905271 L 137.65131 28.706154 C 120.678773 28.463274 72.321957 21.258724 38.128723 30.416871 L 36.418005 32.370469 C 36.053686 32.737428 38.128723 155.217426 38.374242 204.917999 L 103.582156 208.946634 L 153.16129 207.726956 L 157.556884 205.406399 C 176.361579 157.049583 164.151595 119.558993 164.151595 119.558993 Z M 65.970126 93.182788 C 63.406689 83.657681 65.360287 61.067231 65.360287 61.067231 C 65.360287 61.067231 90.881133 59.356513 94.912407 59.356513 C 103.582156 68.638741 101.628558 83.536241 94.912407 94.893506 Z M 71.466598 162.664856 C 68.169243 150.454872 70.732679 120.902751 70.732679 120.902751 C 70.732679 120.902751 103.949115 118.703634 109.075988 118.703634 C 120.433253 130.916258 117.748377 150.209352 109.075988 164.863973 Z M 71.466598 162.664856 " stroke="#ff914d" stroke-width="5.00182" stroke-opacity="1" stroke-miterlimit="4"/><g fill="#ffbd59" fill-opacity="1"><g transform="translate(446.020255, 213.816616)"><g><path d="M 13.097656 -157.808594 C 10.519531 -106.171875 22.113281 4.507812 22.113281 4.507812 L 46.160156 2.363281 L 54.320312 -4.078125 L 71.710938 -161.886719 C 41.972656 -165 13.097656 -157.808594 13.097656 -157.808594 Z M 54.964844 33.921875 C 54.964844 32.957031 54.964844 32.097656 54.425781 31.238281 C 51.742188 25.121094 46.914062 23.9375 40.257812 23.9375 C 32.421875 23.9375 19.324219 27.375 19.324219 36.5 C 19.324219 44.765625 28.449219 49.8125 35.75 49.8125 C 43.800781 49.8125 54.964844 41.972656 54.964844 33.921875 Z M 54.964844 33.921875 "/></g></g></g><path stroke-linecap="butt" transform="matrix(0.824081, 0, 0, 0.824081, 399.530023, 21.98619)" fill="none" stroke-linejoin="miter" d="M 63.737292 35.50612 C 60.608806 98.165913 74.677515 232.472789 74.677515 232.472789 L 103.857762 229.865717 L 113.759896 222.04924 L 134.86296 30.552683 C 98.781082 26.779538 63.737292 35.50612 63.737292 35.50612 Z M 114.542018 268.165976 C 114.542018 266.990424 114.542018 265.952335 113.88788 264.909506 C 110.63141 257.48172 104.772608 256.050201 96.695424 256.050201 C 87.186721 256.050201 71.293061 260.216776 71.293061 271.289722 C 71.293061 281.31984 82.366008 287.444089 91.225313 287.444089 C 100.994723 287.444089 114.542018 277.935386 114.542018 268.165976 Z M 114.542018 268.165976 " stroke="#ff914d" stroke-width="5.33594" stroke-opacity="1" stroke-miterlimit="4"/></svg>