<svg xmlns="http://www.w3.org/2000/svg" xmlns:xlink="http://www.w3.org/1999/xlink" width="1000" zoomAndPan="magnify" viewBox="0 0 750 374.999991" height="500" preserveAspectRatio="xMidYMid meet" version="1.0"><defs><g/></defs><g fill="#ffbd59" fill-opacity="1"><g transform="translate(26.037195, 262.073575)"><g><path d="M 120.269531 -73.960938 L 98.777344 -85 C 101.023438 -87.246094 109.621094 -93.695312 111.867188 -95.941406 C 119.878906 -114.3125 110.695312 -144.890625 110.695312 -144.890625 L 99.070312 -146.648438 C 85.488281 -146.84375 46.800781 -152.609375 19.441406 -145.28125 L 18.074219 -143.71875 C 17.78125 -143.425781 19.441406 -45.429688 19.636719 -5.667969 L 71.808594 -2.441406 L 111.476562 -3.417969 L 114.996094 -5.277344 C 130.039062 -43.964844 120.269531 -73.960938 120.269531 -73.960938 Z M 41.71875 -95.0625 C 39.667969 -102.683594 41.230469 -120.757812 41.230469 -120.757812 C 41.230469 -120.757812 61.648438 -122.125 64.875 -122.125 C 71.808594 -114.703125 70.246094 -102.78125 64.875 -93.695312 Z M 46.113281 -39.472656 C 43.476562 -49.242188 45.527344 -72.886719 45.527344 -72.886719 C 45.527344 -72.886719 72.105469 -74.644531 76.207031 -74.644531 C 85.292969 -64.875 83.144531 -49.4375 76.207031 -37.710938 Z M 46.113281 -39.472656 "/></g></g><g transform="translate(158.911117, 262.073575)"><g><path d="M 101.121094 -56.082031 C 111.867188 -74.839844 116.167969 -120.464844 112.648438 -146.941406 C 112.648438 -146.941406 72.300781 -152.121094 40.839844 -148.3125 C 37.125 -147.820312 25.988281 -146.550781 22.277344 -145.183594 L 17.097656 -140.105469 C 17.097656 -140.105469 19.050781 -75.425781 20.710938 -2.441406 L 41.914062 -0.976562 L 46.113281 -3.027344 L 46.113281 -51.488281 C 53.050781 -50.902344 58.71875 -49.925781 67.414062 -49.4375 L 98.679688 1.074219 C 98.582031 1.171875 101.804688 1.367188 102 1.5625 L 102.488281 1.269531 L 113.917969 -5.277344 C 120.757812 -10.84375 124.570312 -15.925781 131.214844 -22.179688 C 124.960938 -31.949219 101.121094 -56.082031 101.121094 -56.082031 Z M 71.222656 -101.21875 C 71.222656 -101.21875 73.570312 -85.390625 71.320312 -75.621094 C 71.320312 -75.621094 52.660156 -73.472656 49.828125 -73.765625 C 46.996094 -73.472656 41.230469 -74.644531 41.230469 -74.644531 C 41.230469 -74.644531 40.058594 -81.582031 40.253906 -84.21875 C 39.960938 -86.855469 41.230469 -100.730469 41.230469 -100.730469 Z M 71.222656 -101.21875 "/></g></g><g transform="translate(291.394233, 262.073575)"><g><path d="M 112.160156 -108.839844 C 117.144531 -124.179688 112.648438 -146.257812 112.648438 -146.257812 L 106.496094 -146.648438 L 22.667969 -144.5 C 22.667969 -144.5 19.050781 -136.683594 18.660156 -130.429688 C 18.269531 -124.179688 17.683594 -24.914062 22.082031 -13.191406 C 24.230469 -7.425781 26.183594 -1.464844 28.332031 -0.976562 C 30.484375 -0.488281 55.300781 1.464844 87.148438 1.171875 C 119 0.878906 111.964844 1.660156 111.964844 1.660156 L 110.988281 -26.085938 C 110.988281 -26.085938 106.398438 -29.113281 106.59375 -28.917969 C 106.789062 -28.722656 109.328125 -28.527344 109.328125 -28.527344 L 61.648438 -28.917969 L 59.207031 -31.558594 L 59.890625 -56.277344 C 91.742188 -56.570312 108.058594 -57.742188 108.058594 -57.742188 L 108.058594 -69.855469 C 108.058594 -69.855469 106.398438 -79.722656 106.59375 -79.527344 C 106.789062 -79.332031 94.671875 -79.136719 94.671875 -79.136719 L 69.367188 -79.039062 C 65.070312 -91.15625 66.242188 -106.007812 66.242188 -106.007812 C 105.714844 -107.960938 112.160156 -108.839844 112.160156 -108.839844 Z M 112.160156 -108.839844 "/></g></g><g transform="translate(421.630217, 262.073575)"><g><path d="M 16.511719 -144.402344 C 11.917969 -98.386719 7.71875 -56.960938 5.277344 -6.9375 L 8.597656 -3.222656 L 55.59375 -0.878906 L 57.058594 -30.972656 L 74.742188 -29.800781 C 78.453125 -4.101562 77.671875 -8.597656 79.429688 -2.246094 C 87.539062 -1.953125 100.339844 -2.441406 107.375 -2.441406 C 102.683594 -51.488281 95.648438 -95.746094 89.984375 -144.597656 C 80.507812 -145.476562 40.839844 -150.363281 16.511719 -144.402344 Z M 51.488281 -55.984375 L 51 -84.609375 C 51 -84.609375 50.316406 -87.636719 73.667969 -85.976562 L 75.621094 -54.613281 Z M 51.488281 -55.984375 "/></g></g><g transform="translate(534.670752, 262.073575)"><g><path d="M 110.011719 -12.996094 C 110.011719 -12.996094 85.683594 -47.582031 72.59375 -63.410156 C 88.613281 -79.234375 126.914062 -114.605469 126.328125 -115.582031 C 119.488281 -126.71875 98.09375 -144.109375 98.09375 -144.109375 L 93.402344 -145.183594 C 93.402344 -145.183594 72.789062 -127.109375 50.804688 -100.4375 C 51.292969 -125.449219 51.585938 -143.230469 51.097656 -143.328125 C 35.464844 -146.941406 24.425781 -146.0625 24.425781 -146.0625 L 19.539062 -144.597656 C 19.539062 -144.597656 17 -51.390625 20.222656 -9.378906 L 23.546875 -4.886719 L 43.574219 -4.789062 C 43.574219 -4.789062 44.160156 -22.375 44.84375 -50.414062 C 50.707031 -42.890625 66.730469 -26.671875 90.472656 -2.734375 L 95.941406 -1.367188 Z M 110.011719 -12.996094 "/></g></g></g><path stroke-linecap="butt" transform="matrix(0.75, 0, 0, 0.75, -30.992545, 87.487722)" fill="none" stroke-linejoin="miter" d="M 227.828617 128.38617 L 199.172365 113.667419 C 202.167157 110.672628 213.630699 102.073669 216.625491 99.078877 C 227.307784 74.584084 215.062991 33.813248 215.062991 33.813248 L 199.56299 31.464289 C 181.453614 31.203872 129.865069 23.52158 93.391108 33.292414 L 91.568191 35.375748 C 91.177566 35.766373 93.391108 166.422631 93.651525 219.443468 L 163.214029 223.745552 L 216.104658 222.43826 L 220.797366 219.964301 C 240.854659 168.380965 227.828617 128.38617 227.828617 128.38617 Z M 123.094235 100.250752 C 120.35986 90.089293 122.443193 65.990333 122.443193 65.990333 C 122.443193 65.990333 149.667153 64.162208 153.969237 64.162208 C 163.214029 74.06325 161.130696 89.959085 153.969237 102.073669 Z M 128.95361 174.370548 C 125.437985 161.344506 128.17236 129.818462 128.17236 129.818462 C 128.17236 129.818462 163.604654 127.474712 169.078613 127.474712 C 181.193197 140.500755 178.328614 161.084089 169.078613 176.714299 Z M 379.464044 152.224714 C 393.792169 127.214295 399.521337 66.380958 394.833836 31.073664 C 394.833836 31.073664 341.031749 24.172622 299.08383 29.250747 C 294.135913 29.901789 279.286954 31.599706 274.333828 33.422623 L 267.432786 40.193456 C 267.432786 40.193456 270.036953 126.433045 272.250495 223.745552 L 300.52133 225.698677 L 306.120289 222.959093 L 306.120289 158.349714 C 315.370289 159.130964 322.927581 160.433048 334.521332 161.084089 L 376.203627 228.433052 C 376.073418 228.56326 380.375502 228.823677 380.635919 229.084094 L 381.28696 228.693469 L 396.526545 219.964301 C 405.646337 212.542426 410.724462 205.766384 419.583838 197.427842 C 411.245296 184.401799 379.464044 152.224714 379.464044 152.224714 Z M 339.599458 92.042418 C 339.599458 92.042418 342.724458 113.146586 339.729666 126.172629 C 339.729666 126.172629 314.849456 129.037212 311.073414 128.646587 C 307.292164 129.037212 299.609872 127.474712 299.609872 127.474712 C 299.609872 127.474712 298.042163 118.224711 298.30258 114.709086 C 297.911955 111.193461 299.609872 92.69346 299.609872 92.69346 Z M 570.828639 81.880959 C 577.469265 61.427833 571.479681 31.990331 571.479681 31.990331 L 563.271347 31.464289 L 451.500507 34.334081 C 451.500507 34.334081 446.682798 44.755957 446.161965 53.08929 C 445.635923 61.427833 444.854673 193.782008 450.719257 209.412217 C 453.58384 217.099718 456.188007 225.047635 459.057799 225.698677 C 461.922382 226.349719 495.010926 228.953885 537.479679 228.56326 C 579.943223 228.172635 570.568223 229.214302 570.568223 229.214302 L 569.260931 192.219508 C 569.260931 192.219508 563.141139 188.177841 563.401556 188.438258 C 563.661972 188.698674 567.047389 188.959091 567.047389 188.959091 L 503.479677 188.438258 L 500.21926 184.922632 L 501.130718 151.964297 C 543.599471 151.573672 565.354681 150.011172 565.354681 150.011172 L 565.354681 133.860129 C 565.354681 133.860129 563.141139 120.69867 563.401556 120.959087 C 563.661972 121.219503 547.51093 121.47992 547.51093 121.47992 L 513.771344 121.615337 C 508.036969 105.459086 509.599469 85.657001 509.599469 85.657001 C 562.229681 83.052834 570.828639 81.880959 570.828639 81.880959 Z M 616.943226 34.464289 C 610.818225 95.81846 605.219267 151.052839 601.95885 217.75076 L 606.391142 222.698677 L 669.047396 225.828885 L 671.000521 185.703883 L 694.583856 187.266383 C 699.531773 221.526802 698.490106 215.537218 700.833856 224.005968 C 711.646357 224.396593 728.714066 223.745552 738.089067 223.745552 C 731.839067 158.349714 722.458858 99.339294 714.901566 34.203873 C 702.266148 33.031997 649.380728 26.516372 616.943226 34.464289 Z M 663.578646 152.354922 L 662.927604 114.188253 C 662.927604 114.188253 662.016145 110.146586 693.146356 112.365336 L 695.755731 154.177839 Z M 892.328661 209.672634 C 892.328661 209.672634 859.891158 163.558048 842.438032 142.45388 C 863.802617 121.349712 914.86512 74.193459 914.08387 72.891375 C 904.964078 58.042416 876.438034 34.854914 876.438034 34.854914 L 870.182826 33.422623 C 870.182826 33.422623 842.698449 57.521582 813.385947 93.084085 C 814.036989 59.735124 814.427614 36.026789 813.776572 35.896581 C 792.932821 31.073664 778.21407 32.250747 778.21407 32.250747 L 771.698444 34.203873 C 771.698444 34.203873 768.313027 158.479922 772.609903 214.495551 L 777.042195 220.485135 L 803.745321 220.615343 C 803.745321 220.615343 804.526571 197.167425 805.43803 159.782006 C 813.255739 169.813256 834.620323 191.438258 866.276575 223.354927 L 873.568243 225.177843 Z M 892.328661 209.672634 " stroke="#ff914d" stroke-width="5.33594" stroke-opacity="1" stroke-miterlimit="4"/><g fill="#ffbd59" fill-opacity="1"><g transform="translate(664.416063, 262.073575)"><g><path d="M 11.917969 -143.621094 C 9.574219 -96.625 20.125 4.101562 20.125 4.101562 L 42.011719 2.148438 L 49.4375 -3.710938 L 65.265625 -147.332031 C 38.203125 -150.167969 11.917969 -143.621094 11.917969 -143.621094 Z M 50.023438 30.875 C 50.023438 29.996094 50.023438 29.210938 49.535156 28.429688 C 47.09375 22.863281 42.695312 21.789062 36.636719 21.789062 C 29.503906 21.789062 17.585938 24.914062 17.585938 33.21875 C 17.585938 40.742188 25.890625 45.332031 32.535156 45.332031 C 39.863281 45.332031 50.023438 38.203125 50.023438 30.875 Z M 50.023438 30.875 "/></g></g></g><path stroke-linecap="butt" transform="matrix(0.75, 0, 0, 0.75, -30.992545, 87.487722)" fill="none" stroke-linejoin="miter" d="M 934.531788 35.505956 C 931.406788 98.16221 945.474497 232.469511 945.474497 232.469511 L 974.656791 229.865344 L 984.557833 222.047635 L 1005.662001 30.552831 C 969.573457 26.776789 934.531788 35.505956 934.531788 35.505956 Z M 985.339083 268.16743 C 985.339083 266.990346 985.339083 265.948679 984.688042 264.907013 C 981.427625 257.485137 975.568249 256.047637 967.490124 256.047637 C 957.979707 256.047637 942.08908 260.219512 942.08908 271.29243 C 942.08908 281.32368 953.161998 287.443473 962.021373 287.443473 C 971.792207 287.443473 985.339083 277.933055 985.339083 268.16743 Z M 985.339083 268.16743 " stroke="#ff914d" stroke-width="5.33594" stroke-opacity="1" stroke-miterlimit="4"/></svg>