<svg xmlns="http://www.w3.org/2000/svg" xmlns:xlink="http://www.w3.org/1999/xlink" width="500" zoomAndPan="magnify" viewBox="0 0 375 374.999991" height="500" preserveAspectRatio="xMidYMid meet" version="1.0"><path fill="#ffbd59" d="M 345.992188 221.175781 C 331.675781 221.175781 314.035156 215.671875 300.414062 223.191406 C 282.308594 233.265625 287.492188 256.203125 288.34375 273.097656 C 289.039062 287.277344 288.886719 301.457031 288.652344 315.640625 C 288.5 325.945312 290.199219 339.972656 282.152344 347.953125 C 278.902344 351.128906 274.492188 352.679688 270.082031 353.53125 C 246.867188 357.949219 221.332031 353.6875 197.808594 353.6875 C 177.304688 353.6875 156.640625 353.066406 136.136719 353.921875 C 121.898438 354.539062 102.320312 358.878906 90.25 348.730469 C 85.066406 344.390625 82.746094 337.492188 82.046875 330.75 C 80.734375 318.195312 82.898438 305.566406 82.898438 293.011719 C 82.898438 274.800781 91.332031 244.8125 78.023438 228.769531 C 66.882812 215.285156 43.667969 221.019531 28.65625 221.019531 C 10.238281 221.019531 0.953125 198.703125 13.953125 185.605469 C 49.703125 149.574219 85.53125 113.539062 121.28125 77.503906 C 132.730469 65.957031 144.105469 54.488281 155.558594 42.941406 C 164.921875 33.488281 175.445312 17.988281 190.84375 20.160156 C 206.242188 22.328125 217.152344 41.003906 227.214844 51.078125 C 238.820312 62.703125 250.351562 74.40625 261.957031 86.027344 C 286.5625 110.75 311.09375 135.46875 335.699219 160.265625 C 344.058594 168.714844 352.414062 177.082031 360.769531 185.527344 C 373.695312 198.859375 364.40625 221.175781 345.992188 221.175781 Z M 345.992188 221.175781 " fill-opacity="1" fill-rule="nonzero"/><path fill="#000000" d="M 245.628906 357.484375 C 237.503906 357.484375 229.300781 357.019531 221.253906 356.554688 C 213.515625 356.089844 205.46875 355.625 197.808594 355.625 C 191.695312 355.625 185.503906 355.546875 179.546875 355.546875 C 165.308594 355.394531 150.605469 355.316406 136.214844 355.859375 C 133.582031 355.933594 130.71875 356.246094 127.703125 356.476562 C 114.46875 357.640625 99.382812 358.957031 89.011719 350.199219 C 82.746094 345.007812 80.734375 336.871094 80.113281 330.90625 C 79.261719 323 79.804688 315.019531 80.347656 307.269531 C 80.65625 302.542969 80.964844 297.660156 80.964844 292.933594 C 80.964844 288.050781 81.582031 282.394531 82.203125 276.429688 C 83.90625 259.84375 85.839844 241.089844 76.554688 229.933594 C 68.507812 220.167969 53.183594 221.332031 39.644531 222.339844 C 35.773438 222.648438 32.0625 222.878906 28.65625 222.878906 C 19.371094 222.878906 11.324219 217.535156 7.761719 208.855469 C 4.203125 200.253906 6.0625 190.722656 12.636719 184.132812 C 30.511719 166.15625 48.386719 148.101562 66.339844 130.042969 C 84.214844 112.066406 102.089844 94.011719 119.964844 76.03125 L 154.242188 41.46875 C 155.792969 39.84375 157.417969 38.136719 159.117188 36.277344 C 167.242188 27.367188 177.378906 16.207031 191.152344 18.144531 C 203.304688 19.851562 212.589844 30.929688 220.714844 40.695312 C 223.5 43.949219 226.050781 47.128906 228.605469 49.605469 C 234.410156 55.417969 240.214844 61.230469 246.015625 67.121094 C 251.820312 72.933594 257.546875 78.746094 263.351562 84.554688 C 287.957031 109.277344 312.871094 134.382812 337.015625 158.714844 L 337.09375 158.792969 C 341.269531 162.980469 345.371094 167.164062 349.550781 171.347656 C 353.730469 175.609375 357.984375 179.792969 362.164062 184.058594 C 368.742188 190.875 370.519531 200.40625 366.882812 209.085938 C 363.246094 217.6875 355.277344 222.957031 345.992188 222.957031 C 341.734375 222.957031 337.324219 222.492188 332.683594 222.027344 C 321.773438 220.867188 310.472656 219.703125 301.34375 224.742188 C 287.027344 232.722656 288.421875 249.847656 289.734375 265.035156 C 289.96875 267.75 290.199219 270.382812 290.277344 272.863281 C 290.972656 287.121094 290.820312 301.148438 290.585938 315.5625 C 290.585938 317.1875 290.585938 318.816406 290.585938 320.597656 C 290.742188 330.054688 290.820312 341.910156 283.46875 349.195312 C 280.375 352.214844 276.117188 354.230469 270.390625 355.316406 C 262.421875 356.941406 254.0625 357.484375 245.628906 357.484375 Z M 161.363281 351.519531 C 167.476562 351.519531 173.589844 351.597656 179.625 351.597656 C 185.582031 351.671875 191.773438 351.671875 197.886719 351.671875 C 205.625 351.671875 213.75 352.136719 221.5625 352.601562 C 237.738281 353.53125 254.449219 354.464844 269.847656 351.597656 C 274.800781 350.664062 278.4375 348.960938 280.914062 346.558594 C 287.105469 340.4375 286.949219 329.976562 286.875 320.753906 C 286.875 318.972656 286.796875 317.265625 286.875 315.5625 C 287.105469 301.304688 287.261719 287.277344 286.5625 273.171875 C 286.410156 270.695312 286.253906 268.136719 286.023438 265.425781 C 284.707031 249.925781 283.082031 230.628906 299.640625 221.40625 C 309.855469 215.75 321.695312 216.992188 333.222656 218.230469 C 337.789062 218.695312 342.121094 219.160156 346.144531 219.160156 C 353.808594 219.160156 360.460938 214.742188 363.480469 207.613281 C 366.496094 200.40625 365.027344 192.425781 359.53125 186.769531 C 355.355469 182.507812 351.097656 178.320312 346.921875 174.058594 C 342.742188 169.875 338.640625 165.691406 334.460938 161.507812 L 334.382812 161.429688 C 310.242188 137.097656 285.324219 111.988281 260.71875 87.269531 C 254.914062 81.457031 249.113281 75.644531 243.308594 69.753906 C 237.503906 63.941406 231.777344 58.132812 225.976562 52.320312 C 223.34375 49.683594 220.636719 46.507812 217.851562 43.097656 C 210.113281 33.875 201.367188 23.414062 190.691406 21.941406 C 178.929688 20.316406 169.953125 30.15625 162.058594 38.835938 C 160.355469 40.695312 158.730469 42.554688 157.03125 44.183594 L 122.75 78.746094 C 104.875 96.800781 87 114.777344 69.046875 132.835938 C 51.171875 150.8125 33.296875 168.867188 15.425781 186.847656 C 10.007812 192.347656 8.460938 200.175781 11.398438 207.382812 C 14.339844 214.511719 20.996094 219.007812 28.734375 219.007812 C 31.90625 219.007812 35.542969 218.773438 39.410156 218.464844 C 53.183594 217.457031 70.285156 216.136719 79.570312 227.453125 C 89.941406 239.929688 87.851562 259.535156 86.070312 276.816406 C 85.453125 282.703125 84.910156 288.207031 84.910156 292.933594 C 84.910156 297.816406 84.601562 302.777344 84.292969 307.503906 C 83.828125 315.097656 83.285156 322.847656 84.058594 330.441406 C 84.601562 335.632812 86.304688 342.761719 91.566406 347.101562 C 100.695312 354.773438 114.933594 353.53125 127.394531 352.449219 C 130.488281 352.214844 133.351562 351.90625 136.136719 351.828125 C 144.417969 351.671875 152.929688 351.519531 161.363281 351.519531 Z M 161.363281 351.519531 " fill-opacity="1" fill-rule="nonzero"/></svg>